<svg xmlns="http://www.w3.org/2000/svg" xmlns:xlink="http://www.w3.org/1999/xlink" id="icon-visit" width="20" height="20" x="0" y="0" enable-background="new 0 0 20 20" version="1.1" viewBox="0 0 20 20" xml:space="preserve"><g><polygon fill="#FFF" points="17.5 10.707 9.5 2.707 1.5 10.707 .793 10 9.5 1.293 18.207 10"/></g><g><polygon fill="#FFF" points="17 6 16 6 16 4 14 4 14 3 17 3"/></g><polygon fill="#FFF" points="15 10 15 17 12 17 12 12 7 12 7 17 4 17 4 10 3 10 3 17 3 18 4 18 7 18 8 18 8 17 8 13 11 13 11 17 11 18 12 18 15 18 16 18 16 17 16 10"/></svg>