<svg xmlns="http://www.w3.org/2000/svg" xmlns:xlink="http://www.w3.org/1999/xlink" id="icon-move" width="20" height="20" x="0" y="0" enable-background="new 0 0 20 20" version="1.1" viewBox="0 0 20 20" xml:space="preserve"><g><rect width="1" height="3" x="1" y="11" fill="#727272"/><rect width="3" height="1" x="6" y="18" fill="#727272"/><polygon fill="#727272" points="2 16 1 16 1 19 4 19 4 18 2 18"/><polygon fill="#727272" points="1 9 2 9 2 6 4 6 4 5 1 5"/><polygon fill="#727272" points="13 18 11 18 11 19 14 19 14 18 14 16 13 16"/><path fill="#727272" d="M5,1v14h14V1H5z M18,14H6V2h12V14z"/></g></svg>