<svg xmlns="http://www.w3.org/2000/svg" xmlns:xlink="http://www.w3.org/1999/xlink" id="icon-thumbnails" width="20" height="20" x="0" y="0" enable-background="new .5 20.5 20 20" version="1.1" viewBox="0.5 20.5 20 20" xml:space="preserve"><g><g><path fill="#727272" d="M8.5,24.5v4h-4v-4H8.5 M9.5,23.5h-6v6h6V23.5L9.5,23.5z"/></g></g><g><g><path fill="#727272" d="M16.5,24.5v4h-4v-4H16.5 M17.5,23.5h-6v6h6V23.5L17.5,23.5z"/></g></g><g><g><path fill="#727272" d="M8.5,32.5v4h-4v-4H8.5 M9.5,31.5h-6v6h6V31.5L9.5,31.5z"/></g></g><g><path fill="#727272" d="M16.5,32.5v4h-4v-4H16.5 M17.5,31.5h-6v6h6V31.5L17.5,31.5z"/></g></svg>